<svg width="548" height="206" viewBox="0 0 548 206" fill="none" xmlns="http://www.w3.org/2000/svg">
<path d="M83.7453 50.4822C86.0638 52.539 87.2231 53.5674 87.8388 54.9368C88.4546 56.3061 88.4546 57.8558 88.4546 60.9552V131.909C88.4546 138.509 88.4546 141.809 86.4043 143.859C84.3541 145.909 81.0542 145.909 74.4546 145.909H14C7.40034 145.909 4.10051 145.909 2.05025 143.859C0 141.809 0 138.509 0 131.909V46C0 39.4003 0 36.1005 2.05025 34.0503C4.10051 32 7.40034 32 14 32H57.5964C60.224 32 61.5378 32 62.7383 32.4557C63.9387 32.9114 64.9215 33.7833 66.8871 35.5271L83.7453 50.4822Z" fill="#232323"/>
<path d="M67.7384 38.5454C70.204 38.5454 72.2223 38.4976 74.0948 39.2271C75.9674 39.9565 77.4216 41.357 79.2374 43.0249L95.5001 57.9624C97.5393 59.8354 99.2518 61.3285 100.155 63.3853C101.059 65.442 101 67.7132 101 70.4819V142.091C101 145.306 101.006 148.02 100.717 150.172C100.416 152.411 99.7467 154.487 98.0714 156.163C96.396 157.838 94.3191 158.507 92.0802 158.808C89.9277 159.097 87.2149 159.091 84.0001 159.091H26.0909C22.8759 159.091 20.1624 159.098 18.0099 158.808C15.7712 158.507 13.695 157.838 12.0197 156.163C10.3444 154.487 9.67516 152.411 9.37415 150.172C9.08474 148.02 9.09094 145.306 9.09094 142.091V55.5454C9.09094 52.3304 9.08474 49.6169 9.37415 47.4644C9.67518 45.2257 10.3443 43.1494 12.0197 41.4741C13.695 39.7988 15.7712 39.1296 18.0099 38.8286C20.1624 38.5392 22.8759 38.5454 26.0909 38.5454H67.7384Z" fill="#232323" stroke="white" stroke-width="6"/>
<path d="M64.5912 130.319H37.8638M72.2276 122.682H37.8638M64.5912 115.046H37.8638M72.2276 107.409H37.8638" stroke="white" stroke-width="3" stroke-linecap="round" stroke-linejoin="round"/>
<g filter="url(#filter0_d_310_39)">
<path d="M97.3538 65.6047H73.5455C72.9932 65.6047 72.5455 65.157 72.5455 64.6047V42.8181L97.3538 65.6047Z" fill="#232323"/>
</g>
<path d="M46.1797 71.0728H66.691V80.4197L45.9633 95.1324V95.9113H62.58V101.364H41.2466V92.0168L62.0175 77.304V76.5251H46.1797V71.0728Z" fill="white"/>
<path d="M185.191 139.32V156H125.56V128.617L177.546 105.682V103.18H137.097V87.056H194.226V114.022L142.518 136.818V139.32H185.191ZM211.365 127.227C211.18 127.968 211.087 128.756 211.087 129.59C211.087 132.926 212.338 135.706 214.84 137.93C217.435 140.154 220.817 141.266 224.987 141.266C229.343 141.266 232.818 140.478 235.412 138.903C238.007 137.328 239.999 135.474 241.389 133.343L255.289 142.1C254.177 143.953 252.695 145.807 250.841 147.66C249.081 149.513 246.857 151.228 244.169 152.803C241.575 154.286 238.47 155.49 234.856 156.417C231.335 157.436 227.211 157.946 222.485 157.946C218.223 157.946 214.284 157.297 210.67 156C207.149 154.61 204.091 152.757 201.496 150.44C198.994 148.031 197.002 145.204 195.519 141.961C194.129 138.625 193.434 134.965 193.434 130.98C193.434 124.679 194.361 118.748 196.214 113.188C198.16 107.628 200.94 102.763 204.554 98.593C208.168 94.423 212.616 91.1333 217.898 88.724C223.18 86.3147 229.25 85.11 236.107 85.11C240.926 85.11 245.096 85.8977 248.617 87.473C252.231 88.9557 255.197 90.9943 257.513 93.589C259.83 96.091 261.544 98.9637 262.656 102.207C263.861 105.45 264.463 108.786 264.463 112.215C264.463 113.327 264.371 114.485 264.185 115.69C264.093 116.802 263.861 118.285 263.49 120.138L261.961 127.227H211.365ZM233.327 100.956C228.972 100.956 225.173 102.068 221.929 104.292C218.779 106.423 216.416 109.064 214.84 112.215H247.366C247.366 108.694 246.254 105.96 244.03 104.014C241.899 101.975 238.331 100.956 233.327 100.956ZM309.542 115.968C309.912 114.207 310.098 112.725 310.098 111.52C310.098 108.184 309.125 105.589 307.179 103.736C305.233 101.883 302.592 100.956 299.256 100.956C295.086 100.956 291.518 102.439 288.553 105.404C285.587 108.369 283.595 112.354 282.576 117.358L274.375 156H256.861L271.456 87.056H288.275L285.912 98.176H288.414C290.638 93.5427 293.557 90.2067 297.171 88.168C300.877 86.1293 304.955 85.11 309.403 85.11C315.241 85.11 319.874 86.8707 323.303 90.392C326.824 93.9133 328.585 98.871 328.585 105.265C328.585 106.748 328.492 108.138 328.307 109.435C328.121 110.64 327.89 111.983 327.612 113.466L322.052 139.459L323.442 140.432L329.419 136.262L338.176 149.328L330.67 154.332C327.148 156.741 323.395 157.946 319.411 157.946C317.372 157.946 315.426 157.575 313.573 156.834C311.719 156.185 310.098 155.259 308.708 154.054C307.318 152.757 306.206 151.228 305.372 149.467C304.538 147.614 304.121 145.529 304.121 143.212C304.121 142.007 304.26 140.617 304.538 139.042L309.542 115.968ZM335.021 87.056H356.705V58.7H367.547V87.056H394.235V97.064H367.547V141.822C367.547 144.602 368.798 145.992 371.3 145.992H390.899V156H367.408C364.257 156 361.663 154.981 359.624 152.942C357.678 150.903 356.705 148.309 356.705 145.158V97.064H335.021V87.056ZM454.881 87.056H467.252L446.958 119.86V121.528L468.92 156H456.271L437.506 125.698H435.004L416.239 156H403.59L425.552 121.528V119.86L405.258 87.056H417.629L435.004 115.69H437.506L454.881 87.056ZM471.882 87.056H493.566V58.7H504.408V87.056H531.096V97.064H504.408V141.822C504.408 144.602 505.659 145.992 508.161 145.992H527.76V156H504.269C501.118 156 498.523 154.981 496.485 152.942C494.539 150.903 493.566 148.309 493.566 145.158V97.064H471.882V87.056Z" fill="#232323"/>
<defs>
<filter id="filter0_d_310_39" x="69.5455" y="41.8181" width="28.8082" height="26.7866" filterUnits="userSpaceOnUse" color-interpolation-filters="sRGB">
<feFlood flood-opacity="0" result="BackgroundImageFix"/>
<feColorMatrix in="SourceAlpha" type="matrix" values="0 0 0 0 0 0 0 0 0 0 0 0 0 0 0 0 0 0 127 0" result="hardAlpha"/>
<feOffset dx="-1" dy="1"/>
<feGaussianBlur stdDeviation="1"/>
<feComposite in2="hardAlpha" operator="out"/>
<feColorMatrix type="matrix" values="0 0 0 0 0 0 0 0 0 0 0 0 0 0 0 0 0 0 0.2 0"/>
<feBlend mode="normal" in2="BackgroundImageFix" result="effect1_dropShadow_310_39"/>
<feBlend mode="normal" in="SourceGraphic" in2="effect1_dropShadow_310_39" result="shape"/>
</filter>
</defs>
</svg>
